HIERARCHY
ROOT Hips
{
	OFFSET 0.000000 0.000000 0.000000 
	CHANNELS 6 Xposition Yposition Zposition Yrotation Zrotation Xrotation 
	JOINT Lumbar
	{
		OFFSET 0.000000 0.000000 0.000000 
		CHANNELS 3 Zrotation Xrotation Yrotation
		JOINT Neck
		{
			OFFSET 0.000000 0.445665 0.000000 
			CHANNELS 3 Zrotation Xrotation Yrotation
			End Site
			{
				OFFSET 0.000000 0.227535 0.000000 
			}
		}
		JOINT RightShoulder
		{
			OFFSET 0.019635 0.377685 0.194865 
			CHANNELS 3 Zrotation Xrotation Yrotation
			JOINT RightElbow
			{
				OFFSET 0.000000 -0.243375 0.000000 
				CHANNELS 2 Zrotation Yrotation
				JOINT RightWrist
				{
					OFFSET 0.000000 -0.264825 0.000000 
					CHANNELS 2 Zrotation Xrotation
					End Site
					{
						OFFSET 0.006600 -0.176220 0.000990 
					}
				}
			}
		}
		JOINT LeftShoulder
		{
			OFFSET 0.019635 0.377685 -0.194865 
			CHANNELS 3 Zrotation Xrotation Yrotation
			JOINT LeftElbow
			{
				OFFSET 0.000000 -0.243375 0.000000 
				CHANNELS 2 Zrotation Yrotation
				JOINT LeftWrist
				{
					OFFSET 0.000000 -0.264825 0.000000 
					CHANNELS 2 Zrotation Xrotation
					End Site
					{
						OFFSET 0.006600 -0.176220 -0.000990 
					}
				}
			}
		}
	}
	JOINT RightHip
	{
		OFFSET 0.052140 -0.069960 0.075570 
		CHANNELS 3 Zrotation Xrotation Yrotation
		JOINT RightKnee
		{
			OFFSET 0.000000 -0.402270 0.000000 
			CHANNELS 1 Zrotation
			JOINT RightAnkle
			{
				OFFSET 0.000000 -0.404085 0.000000 
				CHANNELS 3 Zrotation Xrotation Yrotation
				End Site
				{
					OFFSET 0.204105 -0.089430 0.008415 
				}
			}
		}
	}
	JOINT LeftHip
	{
		OFFSET 0.052140 -0.069960 -0.075570 
		CHANNELS 3 Zrotation Xrotation Yrotation
		JOINT LeftKnee
		{
			OFFSET 0.000000 -0.402270 0.000000 
			CHANNELS 1 Zrotation
			JOINT LeftAnkle
			{
				OFFSET 0.000000 -0.404085 0.000000 
				CHANNELS 3 Zrotation Xrotation Yrotation
				End Site
				{
					OFFSET 0.204105 -0.089430 -0.008415 
				}
			}
		}
	}
}
MOTION
Frames: 11
Frame Time: 0.02
-0.00558 0.0003 -0.00044 -177.60448 -31.11165 -3.73519 43.60585 1.16085 -5.73383 -13.28398 -0.98628 -1.1491 -28.77596 -11.81538 -5.39627 39.51868 139.35676 18.10404 10.13203 -23.05294 16.48391 -6.31473 43.17544 -95.83048 9.02402 -1.57001 36.24012 -3.80136 -6.18549 -22.07125 -9.39418 -4.13445 -4.39625 36.62818 11.54956 11.55412 -27.7755 -7.41885 2.62142 3.5546
-0.00684 0.0001 -0.0076 -177.47086 -30.92153 -3.67897 43.46116 1.12259 -5.6749 -13.31025 -0.73051 -1.15291 -28.1794 -11.96771 -4.72268 39.477 134.45901 16.79941 9.2449 -22.79461 16.58994 -6.3682 43.59752 -95.84255 9.03765 -1.56764 35.89054 -3.48389 -6.70397 -22.01223 -9.28082 -4.10505 -4.37517 36.36951 11.83086 11.02395 -27.58783 -7.52957 2.656 3.57589
-0.00809 -0.00011 -0.01475 -177.33739 -30.73196 -3.62288 43.31676 1.08438 -5.61593 -13.33664 -0.47428 -1.15671 -27.58333 -12.11947 -4.05079 39.43437 129.57653 15.49879 8.36055 -22.53678 16.69531 -6.42145 44.01804 -95.85532 9.0516 -1.56535 35.54197 -3.16725 -7.22182 -21.95348 -9.16766 -4.07567 -4.35412 36.11202 12.11162 10.49499 -27.40122 -7.64006 2.69045 3.59711
-0.00934 -0.00032 -0.0219 -177.20413 -30.54244 -3.56683 43.17251 1.04622 -5.55717 -13.36287 -0.21912 -1.16051 -26.98842 -12.27131 -3.37923 39.39267 124.69369 14.19813 7.47612 -22.27917 16.80096 -6.47477 44.43876 -95.86724 9.06517 -1.56297 35.19347 -2.85073 -7.73888 -21.89466 -9.05462 -4.04634 -4.3331 35.85421 12.39211 9.96637 -27.21418 -7.75047 2.72494 3.61833
-0.0106 -0.00053 -0.02906 -177.07085 -30.35234 -3.51068 43.02799 1.00802 -5.49848 -13.38892 0.0352 -1.16431 -26.39345 -12.42375 -2.70607 39.35224 119.79607 12.8936 6.589 -22.02127 16.90737 -6.5283 44.86115 -95.87882 9.0785 -1.56056 34.84393 -2.53347 -8.25616 -21.83551 -8.94143 -4.01701 -4.31207 35.59508 12.67301 9.43671 -27.02598 -7.86106 2.75953 3.63963
-0.01184 -0.00074 -0.03619 -176.93703 -30.16388 -3.45469 42.88383 0.96978 -5.4389 -13.41603 0.29545 -1.16811 -25.7951 -12.57406 -2.03684 39.30495 114.94599 11.60134 5.71058 -21.76366 17.01056 -6.58092 45.27775 -95.89442 9.09384 -1.55858 34.4974 -2.21814 -8.77512 -21.77762 -8.82836 -3.98752 -4.29098 35.34108 12.95347 8.90928 -26.84274 -7.97129 2.79367 3.66068
-0.01311 -0.00094 -0.04337 -176.80433 -29.97245 -3.39847 42.73921 0.93168 -5.3813 -13.44097 0.54327 -1.17192 -25.20438 -12.72851 -1.36061 39.27174 110.00443 10.28557 4.81539 -21.50548 17.12015 -6.63542 45.70545 -95.90027 9.10457 -1.55549 34.14535 -1.89924 -9.29029 -21.71729 -8.71516 -3.95839 -4.27004 35.07703 13.23448 8.37788 -26.64957 -8.08218 2.82875 3.68222
-0.01435 -0.00115 -0.0505 -176.67079 -29.78355 -3.34242 42.59481 0.89345 -5.32168 -13.46789 0.80293 -1.17571 -24.6063 -12.87909 -0.69056 39.22514 105.14934 8.99193 3.93612 -21.24832 17.22378 -6.68802 46.12308 -95.91813 9.12056 -1.55388 33.79812 -1.5837 -9.80864 -21.65912 -8.6021 -3.92893 -4.24896 34.82224 13.51503 7.85027 -26.46582 -8.19236 2.86286 3.70326
-0.01556 -0.00136 -0.05759 -176.53539 -29.59849 -3.28672 42.45143 0.85504 -5.2603 -13.49737 1.07593 -1.17948 -24 -13.02521 -0.0288 39.16354 100.38958 7.72298 3.07411 -20.99028 17.32033 -6.73894 46.52786 -95.93882 9.13907 -1.5523 33.45767 -1.27186 -10.33251 -21.60397 -8.48905 -3.89902 -4.22768 34.57876 13.79501 7.3265 -26.29254 -8.30215 2.8962 3.72393
-0.01697 -0.00155 -0.06496 -176.40815 -29.39355 -3.22941 42.30443 0.81759 -5.21117 -13.51256 1.2688 -1.18337 -23.44332 -13.19779 0.67849 39.19232 95.05002 6.30486 2.10617 -20.73093 17.45822 -6.80148 47.00495 -95.90762 9.13133 -1.54519 33.08087 -0.93749 -10.82957 -21.53258 -8.37545 -3.87156 -4.20745 34.27019 14.07827 6.7782 -26.05591 -8.41565 2.93521 3.74742
-0.01795 -0.00179 -0.07173 -176.26537 -29.22916 -3.17525 42.16362 0.77817 -5.13485 -13.55759 1.63273 -1.18703 -22.78067 -13.31404 1.29103 39.02797 90.95406 5.20607 1.36601 -20.47846 17.50853 -6.83824 47.33052 -96.00858 9.18642 -1.55317 32.77911 -0.65146 -11.37989 -21.49474 -8.26335 -3.83902 -4.18507 34.09892 14.35455 6.28331 -25.95487 -8.52035 2.96146 3.76452
